<svg xmlns="http://www.w3.org/2000/svg" viewBox="0 0 167.7 57.91"><defs><style>.cls-1{fill:#2c4399;}.cls-2,.cls-3{fill:none;stroke:#2c4399;stroke-miterlimit:10;}.cls-2{stroke-width:2px;}.cls-3{stroke-width:1.49px;}</style></defs><g id="레이어_2" data-name="레이어 2"><g id="레이어_1-2" data-name="레이어 1"><path class="cls-1" d="M78,21.79h-5.3V34.05H66.79V.69H77.93a11,11,0,0,1,7.7,2.53,8.89,8.89,0,0,1,2.8,6.94v2.11a9.92,9.92,0,0,1-1.23,5,8.08,8.08,0,0,1-3.53,3.26q2,3.44,3.73,6.82c1.14,2.25,2.19,4.48,3.14,6.67H83.81C83,32,82.1,30,81.14,27.92S79.12,23.81,78,21.79Zm0-15.7H72.68v10.3h5.25a4.67,4.67,0,0,0,3.28-1.08,3.9,3.9,0,0,0,1.18-3V10.16a3.83,3.83,0,0,0-1.18-3A4.67,4.67,0,0,0,77.93,6.09Z"/><path class="cls-1" d="M120.56,34.05h-6.14l-2.06-6.52H100.93l-2.06,6.52H93L104.17.69h5.2ZM106.67,8.88l-2.55,8.44-1.52,4.81h8.05l-1.52-4.81Z"/><path class="cls-1" d="M128.31,6.33H119V.69h24.52V6.33h-9.32V34.05h-5.88Z"/><path class="cls-1" d="M156,29.1a7.29,7.29,0,0,0,4.29-1,3.69,3.69,0,0,0,1.4-3.19,3.83,3.83,0,0,0-.9-2.7,7.46,7.46,0,0,0-3.12-1.72l-4-1.32a10.67,10.67,0,0,1-5.42-3.54,9.44,9.44,0,0,1-1.79-5.93,8.9,8.9,0,0,1,2.77-7Q152,.19,157.1.2a19.76,19.76,0,0,1,4.54.52,27.86,27.86,0,0,1,4.83,1.64l-1.81,5.05A35.78,35.78,0,0,0,160.49,6a13.64,13.64,0,0,0-3.19-.39,6.06,6.06,0,0,0-3.68.9,3.34,3.34,0,0,0-1.18,2.82,3.65,3.65,0,0,0,.91,2.6,7,7,0,0,0,3,1.67l4,1.33a11,11,0,0,1,5.52,3.6,9.91,9.91,0,0,1,1.79,6.11,9.09,9.09,0,0,1-3,7.31q-3,2.55-8.59,2.55a21.45,21.45,0,0,1-5.05-.61A29.7,29.7,0,0,1,145.72,32L147.54,27a32.86,32.86,0,0,0,4.63,1.61A15.53,15.53,0,0,0,156,29.1Z"/><path class="cls-1" d="M69.9,54.33A2.82,2.82,0,0,0,71.54,54a1.38,1.38,0,0,0,.53-1.21,1.44,1.44,0,0,0-.43-1.1A3.22,3.22,0,0,0,70.25,51l-1.06-.26a3.09,3.09,0,0,1-1.7-.95,2.63,2.63,0,0,1-.59-1.73,2.45,2.45,0,0,1,.81-1.95A3.37,3.37,0,0,1,70,45.42a6.47,6.47,0,0,1,1.5.18,7.82,7.82,0,0,1,1.45.51l-.39,1a9.17,9.17,0,0,0-1.33-.46A5.47,5.47,0,0,0,70,46.5a2.27,2.27,0,0,0-1.44.39,1.32,1.32,0,0,0-.5,1.11,1.48,1.48,0,0,0,.43,1.09,2.88,2.88,0,0,0,1.29.63l1.08.26a3.19,3.19,0,0,1,1.79.94,2.61,2.61,0,0,1,.58,1.78,2.5,2.5,0,0,1-.82,2,3.65,3.65,0,0,1-2.41.69,7.72,7.72,0,0,1-1.68-.18,8,8,0,0,1-1.62-.55l.32-1a8.6,8.6,0,0,0,1.52.5A6,6,0,0,0,69.9,54.33Z"/><path class="cls-1" d="M79.66,41.43v1.45H78.24V41.43Zm-.12,4.19v9.6H78.36v-9.6Z"/><path class="cls-1" d="M90.21,46.54a3.77,3.77,0,0,0-1.58.38,8.41,8.41,0,0,0-1.79,1.18v7.12H85.65v-9.6h1.13V47a8.46,8.46,0,0,1,1.85-1.2,4.45,4.45,0,0,1,1.78-.38,2.51,2.51,0,0,1,2,.81,3.47,3.47,0,0,1,.7,2.32v6.67H91.93V48.77a2.78,2.78,0,0,0-.42-1.69A1.53,1.53,0,0,0,90.21,46.54Z"/><path class="cls-1" d="M102.44,46.5a2.31,2.31,0,0,0-1.94.82,4.09,4.09,0,0,0-.63,2.5V51a4.08,4.08,0,0,0,.63,2.51,2.29,2.29,0,0,0,1.94.82,5.53,5.53,0,0,0,1.25-.15,7,7,0,0,0,1.35-.5l.39,1a6.86,6.86,0,0,1-1.53.57,6.68,6.68,0,0,1-1.56.2,3.35,3.35,0,0,1-2.75-1.15,4.94,4.94,0,0,1-1-3.27V49.82a5,5,0,0,1,1-3.26,3.37,3.37,0,0,1,2.75-1.14,6,6,0,0,1,1.49.19,7,7,0,0,1,1.43.52l-.4,1a7.22,7.22,0,0,0-1.24-.46A5,5,0,0,0,102.44,46.5Z"/><path class="cls-1" d="M116.63,53.68l.4,1a6.82,6.82,0,0,1-1.59.57,7.55,7.55,0,0,1-1.68.2,3.76,3.76,0,0,1-3-1.13,4.78,4.78,0,0,1-1-3.29V49.82a4.8,4.8,0,0,1,1-3.24,3.54,3.54,0,0,1,2.82-1.16,3.21,3.21,0,0,1,3.45,3.49,7,7,0,0,1-.06.88,9.58,9.58,0,0,1-.18,1H111V51a3.82,3.82,0,0,0,.69,2.51,2.52,2.52,0,0,0,2.08.82,6.39,6.39,0,0,0,1.44-.17A6.5,6.5,0,0,0,116.63,53.68Zm-.73-4.87a2.23,2.23,0,0,0-.62-1.69,2.26,2.26,0,0,0-1.66-.62,2.37,2.37,0,0,0-1.94.83,3.64,3.64,0,0,0-.69,2.39h4.84c0-.15,0-.29.06-.45S115.9,49,115.9,48.81Z"/><path class="cls-1" d="M128.39,45.92l-.5-.82,2.68-1.59h1.12V55.24H130.6V44.63Z"/><path class="cls-1" d="M144,48.08v2.64a5.34,5.34,0,0,1-1,3.49A3.61,3.61,0,0,1,140,55.42a6.41,6.41,0,0,1-1.5-.18,6.89,6.89,0,0,1-1.47-.5l.38-.89a7.48,7.48,0,0,0,1.31.44,5.55,5.55,0,0,0,1.24.14,2.61,2.61,0,0,0,2.19-.91,4.56,4.56,0,0,0,.71-2.8V49.46a5.59,5.59,0,0,1-1.48.95,3.86,3.86,0,0,1-1.52.31,3,3,0,0,1-2.32-.9,3.46,3.46,0,0,1-.86-2.46v-.64a3.25,3.25,0,0,1,1-2.47,3.59,3.59,0,0,1,2.58-.92A3.27,3.27,0,0,1,143,44.56,5.67,5.67,0,0,1,144,48.08Zm-6.18-1.36v.64a2.48,2.48,0,0,0,.58,1.75,2.12,2.12,0,0,0,1.63.63,3.57,3.57,0,0,0,1.5-.35,5.15,5.15,0,0,0,1.41-1v-.31a4.93,4.93,0,0,0-.66-2.82,2.26,2.26,0,0,0-2-.94,2.5,2.5,0,0,0-1.83.64A2.36,2.36,0,0,0,137.77,46.72Z"/><path class="cls-1" d="M155.7,48.08v2.64a5.34,5.34,0,0,1-1,3.49,3.59,3.59,0,0,1-2.91,1.21,6.54,6.54,0,0,1-1.5-.18,6.89,6.89,0,0,1-1.47-.5l.38-.89a7.76,7.76,0,0,0,1.31.44,5.63,5.63,0,0,0,1.25.14,2.61,2.61,0,0,0,2.18-.91,4.49,4.49,0,0,0,.72-2.8V49.46a5.63,5.63,0,0,1-1.49.95,3.83,3.83,0,0,1-1.52.31,3.06,3.06,0,0,1-2.32-.9,3.46,3.46,0,0,1-.85-2.46v-.64a3.25,3.25,0,0,1,1-2.47,3.55,3.55,0,0,1,2.58-.92,3.25,3.25,0,0,1,2.74,1.23A5.67,5.67,0,0,1,155.7,48.08Zm-6.18-1.36v.64a2.49,2.49,0,0,0,.59,1.75,2.1,2.1,0,0,0,1.62.63,3.5,3.5,0,0,0,1.5-.35,5,5,0,0,0,1.42-1v-.31a4.93,4.93,0,0,0-.67-2.82,2.25,2.25,0,0,0-2-.94,2.47,2.47,0,0,0-1.83.64A2.32,2.32,0,0,0,149.52,46.72Z"/><path class="cls-1" d="M166.57,52v.29a3,3,0,0,1-.93,2.35,4,4,0,0,1-2.71.81,7.7,7.7,0,0,1-1.64-.18,8.41,8.41,0,0,1-1.6-.55l.34-.89a6.82,6.82,0,0,0,1.4.48,7.2,7.2,0,0,0,1.5.15,2.79,2.79,0,0,0,1.88-.54,2,2,0,0,0,.62-1.63V52a2.14,2.14,0,0,0-.58-1.62,2.38,2.38,0,0,0-1.69-.56H161.5v-.95h1.66a2.24,2.24,0,0,0,1.6-.53,2.09,2.09,0,0,0,.55-1.58v-.24a2.17,2.17,0,0,0-.57-1.63,2.51,2.51,0,0,0-1.76-.54,6.07,6.07,0,0,0-1.35.15,7.4,7.4,0,0,0-1.34.47l-.38-.9a7.67,7.67,0,0,1,1.53-.52,6.9,6.9,0,0,1,1.54-.19,3.7,3.7,0,0,1,2.58.82,3,3,0,0,1,.89,2.34v.24A3,3,0,0,1,166,48.3a2.69,2.69,0,0,1-1.17,1,2.76,2.76,0,0,1,1.25,1A2.89,2.89,0,0,1,166.57,52Z"/><line class="cls-2" x1="8.93" y1="27.4" x2="24.78" y2="27.4"/><path class="cls-2" d="M24.78,27.4h14a13.2,13.2,0,1,0,0-26.4H13.32L11,7H38.79a7.21,7.21,0,0,1,0,14.42H11.3"/><path class="cls-3" d="M5.21,48.25a4.46,4.46,0,1,0,4.46,4.46A4.47,4.47,0,0,0,5.21,48.25Zm3.47,5.41H1.73a.95.95,0,1,1,0-1.9h7a1,1,0,0,1,0,1.9Z"/><path class="cls-3" d="M9.63,52.71a1,1,0,0,1-1,.95H1.73a.95.95,0,1,1,0-1.9h7A.94.94,0,0,1,9.63,52.71Z"/><path class="cls-3" d="M9.63,52.71a1,1,0,0,1-1,.95H1.73a.95.95,0,1,1,0-1.9h7A.94.94,0,0,1,9.63,52.71Z"/><polyline class="cls-2" points="25.58 27.45 46.72 55.62 54.21 55.62 33.07 27.45"/><path class="cls-2" d="M28.58,21.4l-1.91-2.54A13.2,13.2,0,1,0,5.54,34.69L21.22,55.62h7.49L10.34,31.09A7.2,7.2,0,0,1,20.91,21.4"/></g></g></svg>