<svg xmlns="http://www.w3.org/2000/svg" viewBox="0 0 167.7 57.71"><defs><style>.cls-1{fill:none;stroke:#fff;stroke-miterlimit:10;stroke-width:1.49px;}.cls-2{fill:#fff;}</style></defs><g id="레이어_2" data-name="레이어 2"><g id="레이어_1-2" data-name="레이어 1"><path class="cls-1" d="M4,48.21A4.43,4.43,0,0,0,.9,51.3,4.47,4.47,0,1,0,4,48.21Zm4.71,5.25H1.73a.95.95,0,1,1,0-1.9h7a1,1,0,0,1,0,1.9Z"/><path class="cls-1" d="M9.63,52.51a1,1,0,0,1-1,1H1.73a.95.95,0,1,1,0-1.9h7A.94.94,0,0,1,9.63,52.51Z"/><path class="cls-1" d="M9.63,52.51a1,1,0,0,1-1,1H1.73a.95.95,0,1,1,0-1.9h7A.94.94,0,0,1,9.63,52.51Z"/><path class="cls-2" d="M78,21.58h-5.3V33.85H66.79V.49H77.93A11,11,0,0,1,85.63,3,8.88,8.88,0,0,1,88.43,10v2.11a9.92,9.92,0,0,1-1.23,5,8.08,8.08,0,0,1-3.53,3.26q2,3.43,3.73,6.82c1.14,2.25,2.19,4.48,3.14,6.67H83.81c-.81-2-1.71-4.07-2.67-6.14S79.12,23.61,78,21.58Zm0-15.69H72.68v10.3h5.25a4.67,4.67,0,0,0,3.28-1.08,3.9,3.9,0,0,0,1.18-3V10a3.87,3.87,0,0,0-1.18-3A4.71,4.71,0,0,0,77.93,5.89Z"/><path class="cls-2" d="M120.56,33.85h-6.14l-2.06-6.53H100.93l-2.06,6.53H93L104.17.49h5.2ZM106.67,8.68l-2.55,8.44-1.52,4.81h8.05l-1.52-4.81Z"/><path class="cls-2" d="M128.31,6.13H119V.49h24.52V6.13h-9.32V33.85h-5.88Z"/><path class="cls-2" d="M156,28.89a7.21,7.21,0,0,0,4.29-1,3.67,3.67,0,0,0,1.4-3.19,3.82,3.82,0,0,0-.9-2.69,7.46,7.46,0,0,0-3.12-1.72l-4-1.32a10.74,10.74,0,0,1-5.42-3.54,9.46,9.46,0,0,1-1.79-5.93,8.9,8.9,0,0,1,2.77-7C151.07.83,153.7,0,157.1,0a20.32,20.32,0,0,1,4.54.51,28.83,28.83,0,0,1,4.83,1.65l-1.81,5.05a36.41,36.41,0,0,0-4.17-1.37,13.64,13.64,0,0,0-3.19-.39,6.06,6.06,0,0,0-3.68.9,3.34,3.34,0,0,0-1.18,2.82,3.65,3.65,0,0,0,.91,2.6,7,7,0,0,0,3,1.67l4,1.33a10.9,10.9,0,0,1,5.52,3.6,9.91,9.91,0,0,1,1.79,6.11,9.09,9.09,0,0,1-3,7.31q-3,2.55-8.59,2.55a21.47,21.47,0,0,1-5.05-.62,28.88,28.88,0,0,1-5.35-1.88l1.82-5.06a31.82,31.82,0,0,0,4.63,1.62A15.52,15.52,0,0,0,156,28.89Z"/><path class="cls-2" d="M69.9,54.13a2.82,2.82,0,0,0,1.64-.37,1.38,1.38,0,0,0,.53-1.21,1.44,1.44,0,0,0-.43-1.1,3.11,3.11,0,0,0-1.39-.63l-1.06-.26a3.09,3.09,0,0,1-1.7-1,2.63,2.63,0,0,1-.59-1.73,2.45,2.45,0,0,1,.81-2A3.32,3.32,0,0,1,70,45.22a7,7,0,0,1,1.5.17,7.19,7.19,0,0,1,1.45.52l-.39,1a9.07,9.07,0,0,0-1.33-.45A5,5,0,0,0,70,46.3a2.25,2.25,0,0,0-1.44.39,1.31,1.31,0,0,0-.5,1.11,1.48,1.48,0,0,0,.43,1.09,2.88,2.88,0,0,0,1.29.63l1.08.25a3.26,3.26,0,0,1,1.79.95,2.6,2.6,0,0,1,.58,1.77,2.52,2.52,0,0,1-.82,2,3.7,3.7,0,0,1-2.41.68A7.72,7.72,0,0,1,68.32,55a8,8,0,0,1-1.62-.55l.32-1a9.51,9.51,0,0,0,1.52.5A6,6,0,0,0,69.9,54.13Z"/><path class="cls-2" d="M79.66,41.23v1.44H78.24V41.23Zm-.12,4.18V55H78.36V45.41Z"/><path class="cls-2" d="M90.21,46.34a3.77,3.77,0,0,0-1.58.38,8,8,0,0,0-1.79,1.18V55H85.65V45.41h1.13v1.38a8.76,8.76,0,0,1,1.85-1.19,4.29,4.29,0,0,1,1.78-.38,2.51,2.51,0,0,1,2,.81,3.46,3.46,0,0,1,.7,2.32V55H91.93V48.57a2.76,2.76,0,0,0-.42-1.69A1.54,1.54,0,0,0,90.21,46.34Z"/><path class="cls-2" d="M102.44,46.3a2.29,2.29,0,0,0-1.94.82,4.08,4.08,0,0,0-.63,2.49V50.8a4.08,4.08,0,0,0,.63,2.51,2.29,2.29,0,0,0,1.94.82,5,5,0,0,0,1.25-.16,7.18,7.18,0,0,0,1.35-.49l.39,1a6.86,6.86,0,0,1-1.53.57,6.65,6.65,0,0,1-1.56.19,3.37,3.37,0,0,1-2.75-1.14,4.94,4.94,0,0,1-1-3.27V49.61a4.92,4.92,0,0,1,1-3.25,3.37,3.37,0,0,1,2.75-1.14,6.52,6.52,0,0,1,1.49.18,7,7,0,0,1,1.43.53l-.4,1a7.16,7.16,0,0,0-1.24-.45A4.52,4.52,0,0,0,102.44,46.3Z"/><path class="cls-2" d="M116.63,53.48l.4,1a6.82,6.82,0,0,1-1.59.57,7.53,7.53,0,0,1-1.68.19,3.75,3.75,0,0,1-3-1.12,4.8,4.8,0,0,1-1-3.29V49.61a4.79,4.79,0,0,1,1-3.23,3.54,3.54,0,0,1,2.82-1.16,3.44,3.44,0,0,1,2.52.92,3.48,3.48,0,0,1,.93,2.57,6.7,6.7,0,0,1-.06.87,9.75,9.75,0,0,1-.18,1H111v.24a3.82,3.82,0,0,0,.69,2.51,2.52,2.52,0,0,0,2.08.82,6.85,6.85,0,0,0,1.43-.17A6.41,6.41,0,0,0,116.63,53.48Zm-.73-4.87a2.25,2.25,0,0,0-.62-1.7,2.29,2.29,0,0,0-1.66-.61,2.37,2.37,0,0,0-1.94.83,3.64,3.64,0,0,0-.69,2.39h4.84l.06-.45C115.9,48.92,115.9,48.77,115.9,48.61Z"/><path class="cls-2" d="M128.39,45.72l-.5-.83,2.68-1.58h1.12V55H130.6V44.43Z"/><path class="cls-2" d="M144,47.88v2.64a5.34,5.34,0,0,1-1,3.49,3.61,3.61,0,0,1-2.91,1.2,6.54,6.54,0,0,1-1.51-.17,7,7,0,0,1-1.46-.5l.38-.9a6.12,6.12,0,0,0,1.31.44,5.59,5.59,0,0,0,1.24.15,2.61,2.61,0,0,0,2.19-.91,4.56,4.56,0,0,0,.71-2.8V49.26a5.59,5.59,0,0,1-1.48,1,3.86,3.86,0,0,1-1.52.31,3,3,0,0,1-2.32-.91,3.43,3.43,0,0,1-.86-2.46v-.63a3.25,3.25,0,0,1,1-2.47,3.59,3.59,0,0,1,2.58-.92A3.27,3.27,0,0,1,143,44.36,5.67,5.67,0,0,1,144,47.88Zm-6.18-1.36v.63a2.49,2.49,0,0,0,.58,1.76,2.12,2.12,0,0,0,1.63.63,3.57,3.57,0,0,0,1.5-.35,5.15,5.15,0,0,0,1.41-1v-.31a4.93,4.93,0,0,0-.66-2.82,2.26,2.26,0,0,0-2-.94,2.5,2.5,0,0,0-1.83.64A2.32,2.32,0,0,0,137.77,46.52Z"/><path class="cls-2" d="M155.7,47.88v2.64a5.34,5.34,0,0,1-1,3.49,3.58,3.58,0,0,1-2.91,1.2,6.51,6.51,0,0,1-1.5-.17,6.89,6.89,0,0,1-1.47-.5l.38-.9a6.31,6.31,0,0,0,1.31.44,5.67,5.67,0,0,0,1.25.15,2.61,2.61,0,0,0,2.18-.91,4.49,4.49,0,0,0,.72-2.8V49.26a5.63,5.63,0,0,1-1.49,1,3.83,3.83,0,0,1-1.52.31,3,3,0,0,1-2.32-.91,3.42,3.42,0,0,1-.85-2.46v-.63a3.25,3.25,0,0,1,1-2.47,3.55,3.55,0,0,1,2.58-.92,3.25,3.25,0,0,1,2.74,1.23A5.67,5.67,0,0,1,155.7,47.88Zm-6.18-1.36v.63a2.5,2.5,0,0,0,.59,1.76,2.1,2.1,0,0,0,1.62.63,3.5,3.5,0,0,0,1.5-.35,5,5,0,0,0,1.42-1v-.31a4.93,4.93,0,0,0-.67-2.82,2.25,2.25,0,0,0-2-.94,2.47,2.47,0,0,0-1.83.64A2.32,2.32,0,0,0,149.52,46.52Z"/><path class="cls-2" d="M166.57,51.76v.3a2.94,2.94,0,0,1-.93,2.34,4,4,0,0,1-2.71.81,7.35,7.35,0,0,1-3.24-.72l.34-.9a6.86,6.86,0,0,0,1.4.49,7.2,7.2,0,0,0,1.5.15,2.79,2.79,0,0,0,1.88-.54,2,2,0,0,0,.62-1.63v-.3a2.12,2.12,0,0,0-.58-1.61,2.39,2.39,0,0,0-1.7-.56H161.5v-1h1.65a2.25,2.25,0,0,0,1.61-.53,2.11,2.11,0,0,0,.55-1.58v-.24a2.12,2.12,0,0,0-.58-1.63,2.46,2.46,0,0,0-1.75-.54,6.07,6.07,0,0,0-1.35.15,7.4,7.4,0,0,0-1.34.47l-.38-.9a8.4,8.4,0,0,1,1.53-.53,6.88,6.88,0,0,1,1.54-.18,3.7,3.7,0,0,1,2.58.81,3,3,0,0,1,.89,2.35v.24A3,3,0,0,1,166,48.1a2.66,2.66,0,0,1-1.18,1,2.73,2.73,0,0,1,1.26,1A2.86,2.86,0,0,1,166.57,51.76Z"/><path class="cls-2" d="M24.77,27.2h14a13.2,13.2,0,1,0,0-26.4H13.32L11,6.79H38.79a7.21,7.21,0,1,1,0,14.41H5.54l-2.29,6H24.77"/><polygon class="cls-2" points="33.07 27.19 25.58 27.19 46.72 55.41 54.21 55.41 33.07 27.19"/><path class="cls-2" d="M11.79,20.8a7.2,7.2,0,0,1,9.12.4h7.67l-1.91-2.54A13.2,13.2,0,1,0,5.54,34.48L21.22,55.41h7.49L10.34,30.89A7.22,7.22,0,0,1,11.79,20.8Z"/></g></g></svg>